<svg width="461" height="624" viewBox="0 0 461 624" fill="none" xmlns="http://www.w3.org/2000/svg">
<path fill-rule="evenodd" clip-rule="evenodd" d="M387.983 -111.021C452.083 -103.23 511.389 -82.4278 566.996 -48.3214C628.3 -10.7199 704.771 23.2573 723.461 94.7456C742.071 165.932 682.408 230.359 657.955 299.602C634.767 365.263 628.222 436.593 584.105 489.355C531.575 552.177 467.501 613.414 387.983 622.472C305.135 631.91 219.124 596.886 157.995 537.895C100.185 482.108 96.1007 393.294 70.1792 315.786C43.5192 236.069 -16.5831 160.001 4.34029 78.4489C25.4745 -3.92489 101.816 -59.3337 175.795 -95.8701C241.459 -128.299 315.799 -119.795 387.983 -111.021Z" fill="#91E6F9" fill-opacity="0.1"/>
</svg>
