<svg width="1440" height="88" viewBox="0 0 1440 88" fill="none" xmlns="http://www.w3.org/2000/svg">
<path fill-rule="evenodd" clip-rule="evenodd" d="M0 40.0422L34.8 42.0404C68.4 44.0386 136.8 48.0351 205.2 40.0422C274.8 32.0492 343.2 12.0667 411.6 12.0667C480 12.0667 548.4 32.0492 616.8 32.0492C685.2 32.0492 754.8 12.0667 823.2 4.07376C891.6 -3.91921 960 0.077275 1028.4 14.065C1096.8 28.0527 1165.2 52.0316 1234.8 56.0281C1303.2 60.0246 1371.6 44.0386 1405.2 36.0457L1440 28.0527V88H1405.2C1371.6 88 1303.2 88 1234.8 88C1165.2 88 1096.8 88 1028.4 88C960 88 891.6 88 823.2 88C754.8 88 685.2 88 616.8 88C548.4 88 480 88 411.6 88C343.2 88 274.8 88 205.2 88C136.8 88 68.4 88 34.8 88H0V40.0422Z" fill="white"/>
</svg>
